<svg xmlns="http://www.w3.org/2000/svg" width="462" height="812" viewBox="0 0 462 812"><path fill="#8E8E8E" d="M270.456 381.5c-9.573-2-21.235-2-33.831-2s-24.258 0-33.831 2H176.5v8c0 6.075 26.609 11 59.125 11s58.875-4.925 58.875-11v-8h-24.044z"/><linearGradient id="a" gradientUnits="userSpaceOnUse" x1="236.704" y1="368.832" x2="236.537" y2="391.332"><stop offset="0" stop-color="#D6D4D3"/><stop offset="0" stop-color="#E3E3E3"/><stop offset="1" stop-color="#9B9B9A"/></linearGradient><path fill="url(#a)" d="M291.563 372.621s-2.704-.044-7.251-.111c-11.099-2.64-28.326-4.337-47.688-4.337-18.153 0-34.432 1.493-45.542 3.854-5.326.12-8.833.31-9.563.594-3.006 1.169-4.475 3.928-5.107 5.575-.263.428-.412.863-.412 1.304 0 6.256 27.143 11.327 60.625 11.327s60.625-5.071 60.625-11.327c0-5.583-5.687-6.879-5.687-6.879z"/><linearGradient id="b" gradientUnits="userSpaceOnUse" x1="236.706" y1="365.492" x2="236.543" y2="387.509"><stop offset="0" stop-color="#D6D4D3"/><stop offset="0" stop-color="#D2D3D2"/><stop offset="1" stop-color="#9B9B9A"/></linearGradient><ellipse fill="url(#b)" cx="236.625" cy="376.5" rx="58.875" ry="11"/><path d="M297.5 379.505c0-.38-.19-.776-.274-1.141-.046-.373-.241-.736-.351-1.098a6.615 6.615 0 0 0-.511-1.029c-.175-.334-.424-.64-.664-.93a6.59 6.59 0 0 0-.804-.807 7.744 7.744 0 0 0-.916-.675 8.627 8.627 0 0 0-2.059-.951l-.011-.003-.014-.006c-2.085-1.014-4.32-1.699-6.565-2.286a84.366 84.366 0 0 0-6.83-1.406c-4.587-.772-9.217-1.275-13.854-1.647-1.158-.104-2.319-.176-3.48-.253-1.159-.083-2.318-.171-3.48-.227l-6.969-.349-6.975-.226c-2.325-.079-4.652-.092-6.979-.124-4.661.009-9.307-.004-13.963.127-2.326.082-4.653.159-6.978.292-2.325.123-4.649.275-6.969.475-2.323.175-4.635.458-6.944.75-2.308.303-4.611.645-6.9 1.062a71.492 71.492 0 0 0-6.801 1.53c-2.227.639-4.452 1.335-6.512 2.35l-.045.019-.41.187c-.146.068-.304.131-.424.213-.258.154-.519.3-.765.496-.257.174-.485.387-.72.592l-.166.148-.167.177c-.098.106-.253.262-.302.331l-.591.775c-.107.128-.167.262-.253.392l-.24.392c-.164.258-.287.555-.433.83-.14.28-.243.577-.367.864l-.017.038-.018.033c-.159.281-.25.57-.291.856l.01.213V379.498h.002c-.002 0-.002.066-.002-.067v.004l-.023.017-.007.034.004.067.02.136.043.271c.007.103.045.159.08.216.069.119.12.236.183.361l.3.381c.189.26.483.464.716.701l.175.179.003.201.06 4.316.034 2.158.019.999c.029.174.05.364.086.524.062.101.111.199.151.304.607.987 1.833 1.764 3.058 2.36 1.249.604 2.582 1.073 3.926 1.505 5.411 1.693 11.101 2.566 16.764 3.326 5.678.736 11.396 1.191 17.12 1.498 5.727.274 11.46.444 17.196.469 5.743.013 11.469-.119 17.198-.428 2.864-.128 5.727-.29 8.585-.506 2.859-.212 5.709-.512 8.56-.811 2.849-.314 5.689-.695 8.512-1.182 2.82-.49 5.628-1.08 8.361-1.907 1.365-.414 2.72-.878 4.003-1.486 1.266-.603 2.558-1.336 3.318-2.481.388-.571.399-1.243.394-1.982l.084-2.158.08-4.316v-.057l-.012-.035a5.86 5.86 0 0 0 1.136-1.138 2.71 2.71 0 0 0 .381-.698c.061-.121.245-.253.282-.381.031-.129.213-.263.213-.394v.007zm0-.005c0 .144-.086.292-.119.433a2.5 2.5 0 0 1-.158.417c-.102.27-.263.524-.435.751a4.443 4.443 0 0 1-.569.64c-.199.201-.426.376-.644.555l.043-.092.021 4.316.026 2.158c-.012.368.043.701-.023 1.098-.019.195-.043.389-.13.562-.076.175-.123.371-.242.519-.824 1.3-2.148 2.056-3.415 2.747-1.292.68-2.647 1.21-4.016 1.689-2.738.961-5.549 1.666-8.37 2.297-2.824.625-5.67 1.142-8.524 1.592-2.854.462-5.725.792-8.597 1.101-2.873.296-5.751.545-8.632.747a308.66 308.66 0 0 1-17.312.509c-5.773.012-11.548-.13-17.312-.512-5.763-.378-11.52-.904-17.248-1.716a129.91 129.91 0 0 1-8.558-1.483c-2.838-.593-5.662-1.292-8.433-2.232-1.382-.481-2.752-1.019-4.076-1.708-1.297-.714-2.656-1.508-3.538-3.019a8.184 8.184 0 0 1-.259-.694c-.034-.191-.046-.36-.071-.542l-.203-.034-.207-.114v-.067l.202-.135.104-.27.059-.54.059-2.158.072-4.316.185.379c-.275-.287-.584-.519-.823-.854l-.361-.494a7.222 7.222 0 0 1-.28-.633c-.11-.229-.089-.384-.126-.573l-.019-.136-.009-.068-.005-.034-.027-.017-.029-.077v-.01l.056-.334c.073-.439.263-.832.475-1.181l-.028.07c.141-.306.266-.622.423-.919.166-.295.303-.597.494-.885l.282-.431c.096-.138.183-.299.289-.417l.613-.759c.155-.185.24-.25.362-.382l.169-.175.198-.176c.257-.221.507-.448.791-.637.266-.207.572-.379.876-.552.152-.096.299-.151.448-.219.164-.071.261-.122.48-.209l-.045.019c2.144-1.029 4.4-1.707 6.659-2.331 1.135-.292 2.27-.585 3.417-.818 1.142-.257 2.287-.498 3.436-.718 4.592-.901 9.231-1.508 13.875-2.048 2.321-.28 4.648-.511 6.978-.714 2.329-.213 4.662-.37 6.996-.527 2.335-.126 4.669-.265 7.011-.34 2.347-.116 4.666-.113 7.013-.146 2.339.008 4.679-.003 7.018.052 2.34.016 4.678.128 7.016.239 2.336.131 4.673.267 7.004.482 2.332.198 4.663.422 6.984.726 4.646.576 9.277 1.292 13.859 2.258a85.08 85.08 0 0 1 6.813 1.703c2.233.697 4.479 1.403 6.567 2.495l-.021-.009a9.735 9.735 0 0 1 2.102 1.017c.328.21.641.446.935.703.293.258.57.535.814.84.246.302.479.621.658.968.201.336.339.705.477 1.069.111.375.294.75.341 1.143.083.39.167.77.167 1.155v.006z"/><linearGradient id="c" gradientUnits="userSpaceOnUse" x1="308.137" y1="41.984" x2="202.137" y2="80.318"><stop offset="0" stop-color="#D6D4D3"/><stop offset="0" stop-color="#E3E3E3"/><stop offset="1" stop-color="#9B9B9A"/></linearGradient><path fill="url(#c)" d="M188 69.753s46.543 18.753 109.021 0c0 0-9.521-20.553-57.521-20.553-30 0-42.25 9.8-51.5 20.553z"/><path opacity=".1" d="M250.501 56.25c2.896-1.614 3.775-4.17 3.503-6.343-4.4-.446-9.205-.708-14.504-.708-3.3 0-6.372.125-9.262.35.196 1.158.67 2.509 1.679 3.95 2.917 4.168 12.751 6.002 18.584 2.751z"/><g opacity=".1"><path d="M197.501 66c-.971-.97 1.199-4.53 3.688-7.938-5.453 3.394-9.556 7.467-13.189 11.691 0 0 18.86 7.595 48.681 8.283-30.401-.732-37.258-10.114-39.18-12.036zm42.68 12.083z"/></g><path fill="none" stroke="#000" stroke-miterlimit="10" d="M252.523 49.759c.143-1.2.145-2.51.145-3.884 0-5.73-4.646-10.375-10.375-10.375-5.73 0-10.376 4.645-10.376 10.375 0 1.247.028 2.438.165 3.545-24.68 1.494-35.636 10.514-44.082 20.333 0 0 46.543 18.753 109.021 0 0 0-7.757-16.715-44.498-19.994z"/><radialGradient id="d" cx="243.188" cy="44" r="9.418" gradientUnits="userSpaceOnUse"><stop offset="0" stop-color="#D6D4D3"/><stop offset="0" stop-color="#EFEEEE"/><stop offset=".637" stop-color="#B7B6B6"/><stop offset="1" stop-color="#9C9A9A"/></radialGradient><path fill="url(#d)" d="M252.668 45.875c0 5.73 0 10.375-10.375 10.375-9.922 0-10.376-4.645-10.376-10.375S236.563 35.5 242.293 35.5c5.729 0 10.375 4.645 10.375 10.375z"/><path fill="#686060" d="M252.718 45.875s.021 1.052-.021 2.903c-.06.92-.081 2.065-.514 3.325-.409 1.245-1.388 2.61-2.908 3.337-1.485.771-3.264 1.077-5.098 1.18-1.844.082-3.769-.015-5.755-.416a9.564 9.564 0 0 1-1.467-.402c-.492-.143-.959-.371-1.432-.587-.921-.488-1.753-1.183-2.356-2.063-.621-.873-.967-1.916-1.158-2.96-.213-1.045-.307-2.111-.355-3.171-.017-.515-.062-1.079-.038-1.602-.012-.518.06-1.068.132-1.62a11.68 11.68 0 0 1 1.034-3.078 11.586 11.586 0 0 1 1.901-2.585 11.616 11.616 0 0 1 2.515-1.887c1.826-.989 3.886-1.396 5.77-1.238 1.913.099 3.64.796 5.005 1.698 1.376.908 2.374 2.069 3.068 3.179.702 1.116 1.06 2.208 1.311 3.1.225.903.312 1.631.337 2.125l.029.762zm-.1 0l-.046-.752a8.944 8.944 0 0 0-.403-2.082 9.853 9.853 0 0 0-1.502-2.896c-.75-1.01-1.819-1.972-3.135-2.727a10.246 10.246 0 0 0-4.618-1.365c-.872-.071-1.747.044-2.638.189-.879.202-1.755.499-2.594.923-.826.444-1.623.986-2.324 1.659a11.23 11.23 0 0 0-1.803 2.318c-.481.87-.845 1.816-1.073 2.799-.092.486-.197.974-.22 1.512-.057.529-.044 1.02-.062 1.558-.004 2.064.068 4.263 1.223 5.968.562.844 1.389 1.458 2.269 1.905.459.191.903.407 1.392.503.47.143.953.223 1.436.288 1.911.275 3.833.17 5.604.093 1.771-.153 3.427-.445 4.805-1.041a5.26 5.26 0 0 0 2.853-2.783c.497-1.143.66-2.268.742-3.177.081-.916.082-1.641.089-2.135.002-.493.005-.757.005-.757z"/><path opacity=".1" d="M212.821 52.756C200.88 56.559 193.84 62.965 188 69.753c0 0 23.571 9.491 59.676 8.212-39.151-3.828-39.111-16.978-34.855-25.209z"/><linearGradient id="e" gradientUnits="userSpaceOnUse" x1="102.09" y1="190.051" x2="177.59" y2="216.051"><stop offset="0" stop-color="#D6D4D3"/><stop offset="0" stop-color="#706F6F"/><stop offset=".143" stop-color="#737272"/><stop offset=".248" stop-color="#7C7B7B"/><stop offset=".341" stop-color="#8C8B8B"/><stop offset=".426" stop-color="#A3A2A2"/><stop offset=".486" stop-color="#B7B6B6"/><stop offset=".563" stop-color="#A9A8A8"/><stop offset=".709" stop-color="#959594"/><stop offset=".855" stop-color="#898988"/><stop offset="1" stop-color="#858584"/></linearGradient><path fill="url(#e)" d="M187.328 140.082c-1.668 1.552-8.518 1.716-8.518 1.716-4.411-.614-16.459-1.713-29.811 2.03-15.487 4.342-35.657 16.114-43.793 47.543-7.994 30.884.89 51.968 9.75 64.217 6.364 8.799 13.601 14.369 17.924 17.21 6.023 4.482 6.703 9.702 6.703 9.702S158 277 157.75 275.771 154 254 154 254s-13.234-3.474-13.652 1.258-6.157 2.31-6.157 2.31c-10.294-8.926-25.301-28.545-16.397-62.939 9.302-35.938 37.057-40.628 51.461-40.522 3.984-.094 1.578 5.37 1.578 5.37l4.918 4.273 7.25 4 14.25-12c-.001 0-8.255-17.221-9.923-15.668z"/><path opacity=".1" d="M140.348 255.258c-.242 2.747-2.275 3.079-3.94 2.878-.998 2.65-1.578 5.154-2.851 6.427-3.25 3.25-12.943-7.688-17.943-14.938-3.687-5.345 1.79-8.331 4.924-9.664-2.506-5.248-4.418-11.461-5.138-18.461h-11.15l-1.722 1.546c1.544 14.41 6.987 25.145 12.429 32.667a69.391 69.391 0 0 0 17.924 17.147c6.023 4.482 6.703 9.67 6.703 9.67s18.416-5.516 18.166-6.745-3.75-21.777-3.75-21.777-13.234-3.482-13.652 1.25z"/><g opacity=".1"><path d="M149 143.828c-10.937 3.066-24.202 9.849-33.923 24.63l.423 6.259 8.342 4.445c8.635-15.563 21.878-21.708 33.132-23.922-.56-4.863-3.66-9.092-6.259-11.857-.57.143-1.14.284-1.715.445zm19.44 10.281c.272-.001.55-.005.813-.003 3.984-.094 1.578 5.37 1.578 5.37l4.918 4.273 7.25 4 14.25-12s-5.795-12.088-8.654-15.092c-10.418 2.096-16.762 8.609-20.155 13.452z"/></g><linearGradient id="f" gradientUnits="userSpaceOnUse" x1="376.212" y1="126.313" x2="319.244" y2="176.333"><stop offset="0" stop-color="#D6D4D3"/><stop offset="0" stop-color="#E3E3E3"/><stop offset="1" stop-color="#9B9B9A"/></linearGradient><path fill="url(#f)" d="M311.285 147.982S328.667 151 337.667 145s16.186-15.321 16.186-15.321S366.334 131 375.667 126c0 0-28.572 35.667-31.786 40s-5.443 14.071-6.756 22.875c-3.375 22.647-17.791 7.792-17.791 7.792l-8.049-48.685z"/><path opacity=".1" d="M354.152 152.946c-15.354 3.443-24.32-.518-29.076-4.346-7.18.527-13.791-.618-13.791-.618l8.049 48.684s14.416 14.856 17.791-7.792c1.312-8.804 3.542-18.542 6.756-22.875 1.116-1.504 5.295-6.794 10.271-13.053z"/><path opacity=".1" d="M342.365 168.584c-5.625 2.947-10.085 3.153-13.865-4.859-3.175-6.728-6.821-11.696-9.727-15.031-4.323-.164-7.488-.711-7.488-.711l8.049 48.684s14.416 14.856 17.791-7.792c1.095-7.344 2.83-15.326 5.24-20.291z"/><radialGradient id="g" cx="258.333" cy="193" r="101.922" gradientUnits="userSpaceOnUse"><stop offset="0" stop-color="#D6D4D3"/><stop offset="0" stop-color="#EFEEEE"/><stop offset=".637" stop-color="#B7B6B6"/><stop offset="1" stop-color="#9C9A9A"/></radialGradient><path fill="url(#g)" d="M300.021 136.753C280.771 131.75 259.206 131 245.5 131c-13.7 0-35.25.75-54.5 5.753-50 43.253-52.691 124.289-51.104 147.497C161.043 298.5 245.5 297 245.5 297s84.499 1.5 105.646-12.75c1.587-23.208-1.125-104.244-51.125-147.497z"/><path opacity=".1" d="M342.269 207.833c2.297 17.594 5.271 60.883-4.019 72.167-7.615 9.25-72.25 11.5-88 11.25s-34 2.25-71.25-5.5-30.447-22.245-31.5-37.25c-1.089-15.522-.75-13 3.5-33 4.01-18.869 4.367-26.905 4.367-26.905-15.676 38.679-16.533 80.121-15.471 95.655C161.043 298.5 245.5 297 245.5 297s84.499 1.5 105.646-12.75c.887-12.972.427-44.009-8.877-76.417z"/><linearGradient id="h" gradientUnits="userSpaceOnUse" x1="123.814" y1="140.267" x2="123.814" y2="240.475"><stop offset="0" stop-color="#664E2F"/><stop offset="1" stop-color="#4E3B22"/></linearGradient><path fill="url(#h)" d="M108.271 240.475c-6.131 0-9.68-1.205-11.135-7.432-3.131-13.404-2.695-28.015 1.294-43.427 5.861-22.644 18.7-39.306 37.127-48.185 6.719-3.234 11.457.602 14.692 7.318 3.236 6.717 3.743 13.77-2.974 17.006-11.362 5.474-18.79 15.493-22.707 30.626-2.885 11.142-3.268 21.41-1.14 30.518 1.695 7.26-4.815 11.521-12.075 13.217a13.436 13.436 0 0 1-3.082.359z"/><path fill="#44311D" d="M147.276 165.756c3.543-1.707 5.062-4.48 5.245-7.702-.11.022-9.886 1.981-15.188 8.279-2.731 3.244-5.344 9.698-7.787 16.862 4.213-7.989 10.075-13.75 17.73-17.439zm-23.846 61.145c-1.671-7.151-1.786-15.019-.366-23.461l-.002.006c-4.062 12.222-1.396 24.555-9.729 27.222s-17.877 2.73-16.771-32.468c-2.158 12.266-1.969 23.953.575 34.844 1.455 6.227 5.004 7.432 11.135 7.432 1.017 0 2.05-.116 3.083-.357 7.259-1.697 13.77-5.958 12.075-13.218z"/><path d="M337.104 188.018c.596-3.037 1.176-6.078 1.852-9.102.688-3.017 1.425-6.042 2.598-8.928.591-1.438 1.293-2.84 2.228-4.104l2.861-3.656a789.438 789.438 0 0 1 5.745-7.293l23.108-29.073.276.332c-3.328 1.785-7.006 2.8-10.711 3.37-1.855.285-3.729.45-5.604.521-1.877.065-3.749.052-5.636-.109l.268-.115c-2.532 3.2-5.298 6.185-8.248 8.993-.746.692-1.487 1.391-2.263 2.052-.761.678-1.557 1.315-2.346 1.96-.812.617-1.609 1.254-2.455 1.829-.834.601-1.68 1.16-2.619 1.641-3.715 1.876-7.843 2.588-11.907 2.881a56.934 56.934 0 0 1-6.127.07c-2.044-.087-4.069-.25-6.112-.551l-.171-.025-.129-.144-1.377-1.543-1.428-1.496a95.283 95.283 0 0 0-2.989-2.87c-2.041-1.867-4.161-3.658-6.273-5.47l.232.122-3.325-.798-3.345-.717a164.481 164.481 0 0 0-6.734-1.214 168.1 168.1 0 0 0-6.778-.954 191.61 191.61 0 0 0-6.81-.727 259.959 259.959 0 0 0-13.671-.869 331.21 331.21 0 0 0-13.703-.251c-4.574.014-9.136.108-13.7.311-4.562.203-9.119.513-13.66.957-2.271.221-4.539.468-6.799.77-2.263.283-4.518.622-6.765.997-2.249.366-4.486.795-6.715 1.255l-3.333.737-3.312.818.362-.19-2.519 2.299-.63.575-.315.287a6.199 6.199 0 0 1-.369.316c-.368.28-.663.415-.973.555a9.023 9.023 0 0 1-.907.326c-1.194.349-2.362.529-3.531.671a43.085 43.085 0 0 1-3.512.266l-.067.002-.083-.011c-5.148-.678-10.398-.769-15.588-.368-1.298.108-2.593.24-3.884.41-.647.073-1.288.19-1.932.283-.645.09-1.283.211-1.922.333-1.282.222-2.547.524-3.814.814l-1.885.494c-.604.153-1.257.365-1.883.544l-.639.184-.421-.515c-.826-1.011-1.77-1.899-2.826-2.554-1.067-.624-2.238-1.03-3.458-1.046-1.216-.035-2.46.223-3.646.717l-.877.393-.932.468c-.632.308-1.22.635-1.818.957a62.67 62.67 0 0 0-13.222 9.649c-3.969 3.768-7.44 8.055-10.36 12.69-2.927 4.633-5.319 9.603-7.218 14.754a91.704 91.704 0 0 0-2.493 7.854c-.37 1.319-.667 2.662-1.004 4.02-.281 1.341-.596 2.669-.833 4.028-1.031 5.404-1.629 10.89-1.704 16.377a78.488 78.488 0 0 0 .279 8.217c.23 2.729.581 5.45 1.109 8.135.114.675.27 1.341.415 2.009l.219 1.002c.052.257.169.65.251.968.34 1.196.852 2.352 1.589 3.214 1.418 1.782 3.972 2.278 6.624 2.373l.835.03.34.813c.428 1.023.818 2.063 1.292 3.067.441 1.018.938 2.009 1.429 3.003.518.98 1.023 1.968 1.59 2.921.542.967 1.136 1.904 1.726 2.841a69.214 69.214 0 0 0 1.875 2.746 66.404 66.404 0 0 0 2.019 2.654 58.898 58.898 0 0 0 2.133 2.541 68.425 68.425 0 0 0 12.389 11.026l.686.466.345.229.172.115.189.138.083.065c.449.364.875.664 1.353 1.11.96.825 1.757 1.701 2.532 2.66a17.613 17.613 0 0 1 1.989 3.102c.271.559.528 1.125.736 1.721.216.616.389 1.15.521 1.936l-1.879-1.216.207-.063 1.772-.537.116 1.867.111 1.787-.646-1.121c3.503 2.273 7.702 3.729 11.908 4.919 4.233 1.178 8.576 2.056 12.942 2.805 8.746 1.47 17.609 2.376 26.485 3.068 8.879.696 17.786 1.133 26.699 1.404 4.457.134 8.916.226 13.374.274 4.479.047 8.873.057 13.417.005 8.896.156 17.832.096 26.746-.112 8.917-.215 17.83-.597 26.72-1.239 8.889-.625 17.769-1.47 26.549-2.88 4.385-.72 8.75-1.569 13.022-2.724 4.248-1.174 8.497-2.594 12.139-4.927l-.333.578.191-3.035.12-3.043c.045-2.031.106-4.063.084-6.097l-.013-3.051-.077-3.051c-.031-2.035-.156-4.066-.242-6.1-.092-2.034-.265-4.062-.393-6.095-.155-2.03-.361-4.056-.539-6.084l-.688-6.071c-.259-2.02-.574-4.032-.859-6.049-.29-2.016-.675-4.017-1.008-6.027-.318-2.013-.774-4-1.161-6-.378-2.002-.848-3.985-1.314-5.968l-.694-2.977c-.239-.99-.521-1.969-.778-2.955-.549-1.961-1.005-3.951-1.634-5.889l-1.799-5.842-2.005-5.775c-.323-.949-.729-1.939-.782-2.994-.073-1.046.103-2.076.302-3.076zm.294.058c-.19.998-.352 2-.277 2.995.057.999.446 1.927.787 2.897l2.061 5.769 1.854 5.838c.647 1.938 1.122 3.926 1.689 5.888.268.985.558 1.965.807 2.956l.723 2.977c.485 1.984.974 3.967 1.371 5.971.405 2.002.88 3.991 1.217 6.005.352 2.012.756 4.016 1.065 6.035.303 2.02.637 4.036.915 6.06l.791 6.079c.214 2.032.455 4.062.646 6.097.163 2.037.372 4.071.499 6.111.121 2.041.282 4.08.349 6.124l.13 3.065.065 3.068c.058 2.045.031 4.093.021 6.141l-.067 3.073-.142 3.076-.017.368-.316.21c-3.869 2.565-8.195 4.073-12.513 5.354-4.337 1.255-8.741 2.192-13.161 2.998-8.847 1.578-17.766 2.596-26.694 3.367-8.933.735-17.88 1.209-26.83 1.516-8.955.299-17.897.45-26.876.383-4.393.072-8.938.065-13.396.03-4.479-.038-8.956-.12-13.434-.245-8.954-.251-17.908-.67-26.852-1.35-8.941-.704-17.875-1.662-26.758-3.179-4.438-.777-8.865-1.685-13.241-2.918-4.359-1.265-8.735-2.738-12.743-5.363l-.605-.397-.041-.724-.104-1.835 1.888 1.33-.202.06-1.604.477-.275-1.693a8.37 8.37 0 0 0-.367-1.335c-.162-.474-.371-.94-.59-1.401a14.697 14.697 0 0 0-1.656-2.61c-.639-.804-1.37-1.61-2.126-2.263-.34-.337-.836-.699-1.264-1.049l-.083-.066-.042-.035-.01-.008c.205.148.05.037.093.068l-.022-.015-.18-.121-.36-.243-.715-.492a71.201 71.201 0 0 1-12.839-11.553 62.6 62.6 0 0 1-2.216-2.67 69.015 69.015 0 0 1-2.075-2.76c-.67-.941-1.312-1.9-1.937-2.872-.61-.98-1.222-1.959-1.781-2.969-.583-.996-1.105-2.026-1.638-3.05-.506-1.037-1.016-2.072-1.47-3.133-.485-1.047-.887-2.13-1.325-3.197l1.175.843c-1.449-.068-2.945-.227-4.453-.692-1.492-.462-3.022-1.358-4.049-2.655-1.06-1.277-1.668-2.739-2.081-4.212-.089-.355-.174-.629-.266-1.053l-.221-1.038c-.146-.692-.303-1.381-.417-2.08-.53-2.778-.876-5.588-1.098-8.403a81.005 81.005 0 0 1-.24-8.461c.109-5.641.753-11.259 1.829-16.78.248-1.381.579-2.761.876-4.141.339-1.34.65-2.714 1.037-4.073a94.061 94.061 0 0 1 2.59-8.041c1.972-5.28 4.455-10.383 7.494-15.147 3.032-4.766 6.638-9.18 10.758-13.058a64.818 64.818 0 0 1 13.714-9.916c.628-.334 1.258-.679 1.879-.978l.935-.464c.347-.167.685-.305 1.029-.457 1.382-.567 2.921-.9 4.488-.847 1.571.03 3.118.568 4.436 1.357 1.309.818 2.404 1.876 3.333 3.021l-1.06-.332c.642-.181 1.245-.376 1.919-.545l1.944-.501c1.305-.292 2.608-.598 3.926-.82.657-.122 1.314-.244 1.977-.333.662-.093 1.32-.209 1.984-.282a84.513 84.513 0 0 1 3.985-.403c5.328-.386 10.682-.273 15.992.449l-.15-.009a40.912 40.912 0 0 0 3.343-.238c1.105-.127 2.211-.301 3.221-.592a7.21 7.21 0 0 0 .711-.251c.214-.089.434-.214.526-.277.138-.116.16-.12.286-.239l.321-.291.643-.581 2.571-2.325.155-.14.208-.05 3.361-.814 3.377-.731c2.257-.455 4.521-.879 6.793-1.239 2.271-.369 4.548-.7 6.831-.976 2.28-.294 4.567-.533 6.855-.746 4.576-.427 9.163-.718 13.751-.902 4.585-.184 9.184-.259 13.769-.252 9.178.021 18.364.386 27.506 1.303 2.285.228 4.568.48 6.845.789 2.278.29 4.551.636 6.816 1.018 2.268.374 4.524.812 6.775 1.28l3.365.751 3.348.834.13.032.103.09c2.092 1.827 4.205 3.644 6.251 5.549a95.43 95.43 0 0 1 3.002 2.934l1.438 1.533 1.387 1.582-.3-.169c1.966.308 3.985.489 5.99.59 2.009.099 4.023.101 6.028-.017 3.991-.25 8.033-.925 11.601-2.692.871-.435 1.728-.986 2.541-1.563.837-.558 1.629-1.181 2.437-1.783.784-.632 1.577-1.254 2.336-1.919.773-.647 1.514-1.333 2.259-2.013 2.945-2.755 5.73-5.71 8.249-8.852l.104-.13.164.015c1.832.169 3.702.198 5.555.145a48.793 48.793 0 0 0 5.546-.477c3.666-.537 7.3-1.516 10.578-3.245l.945-.499-.669.831-11.648 14.462-11.569 14.52c-1.935 2.416-3.839 4.854-5.745 7.292l-2.861 3.655c-.908 1.228-1.604 2.614-2.188 4.035-1.161 2.855-1.896 5.87-2.583 8.88-.674 3.018-1.255 6.057-1.85 9.094z"/><path d="M134.34 257.568l.003.344-.251-.23c-.796-.728-1.633-1.413-2.396-2.177l-1.156-1.134c-.395-.37-.747-.779-1.116-1.174-.736-.79-1.468-1.585-2.137-2.435l-1.03-1.252c-.336-.423-.642-.87-.964-1.304l-.956-1.311c-.321-.436-.589-.906-.887-1.358l-.872-1.369c-.304-.449-.55-.931-.812-1.405-.503-.958-1.078-1.881-1.522-2.869l-1.359-2.953-.129-.281.269-.191c1.537-1.096 2.867-2.513 3.573-4.219.731-1.711.734-3.583.297-5.438l-.588-2.856c-.188-.955-.279-1.949-.423-2.923-.158-.979-.208-1.959-.271-2.939-.062-.98-.153-1.96-.129-2.943.002-.981-.016-1.964.003-2.946l.169-2.94c.03-.984.195-1.953.292-2.929.114-.975.208-1.954.394-2.917l.496-2.902.64-2.872.324-1.435.385-1.422.382-1.407.446-1.415a44 44 0 0 1 .955-2.803c.319-.932.707-1.84 1.087-2.751.759-1.823 1.657-3.589 2.613-5.324 1.008-1.706 2.068-3.39 3.298-4.956 1.183-1.602 2.558-3.055 3.971-4.46 1.458-1.36 2.981-2.662 4.636-3.781 1.623-1.169 3.378-2.131 5.148-3.047l1.196-.694c.232-.118.379-.253.53-.384l.469-.385a7.4 7.4 0 0 0 1.56-1.951c.809-1.472 1.045-3.246.879-5.024l-.091-.971.921-.227 2.956-.729 1.479-.363c.493-.124.999-.175 1.497-.266l3.004-.491c.501-.081 1.008-.104 1.512-.158l1.514-.141c.505-.042 1.01-.102 1.516-.13l1.521-.047 1.521-.046.38-.011.095-.003.048-.001.133.003.186.011c.252.021.436-.008.949.137.448.093.82.323 1.179.573.327.295.639.648.798 1.025.357.75.416 1.473.385 2.083a8.299 8.299 0 0 1-.264 1.747 11.81 11.81 0 0 1-.532 1.623l-.032.078-.091.143-3.642 5.715-3.36 5.886-3.105 6.026-2.848 6.154-2.636 6.251-2.41 6.347-2.194 6.429c-.671 2.164-1.378 4.317-2.022 6.491-.601 2.186-1.254 4.359-1.812 6.558-.532 2.205-1.14 4.394-1.611 6.615-.487 2.217-.996 4.431-1.435 6.66-.462 2.225-.917 4.452-1.297 6.694a190.718 190.718 0 0 0-1.118 6.731c-.375 2.246-.622 4.508-.966 6.76-.159 1.128-.281 2.26-.423 3.391l-.206 1.697c-.044.3-.047.527-.125.888-.073.288-.074.539-.226.867-.198.648-.643 1.159-1.169 1.536-.549.365-1.185.482-1.785.516-1.214.028-2.35-.292-3.422-.748l.211-.141zm-.091-.138c1.051.354 2.193.568 3.263.453.525-.076 1.043-.211 1.435-.514.368-.307.688-.723.792-1.187.101-.192.104-.528.154-.795.039-.199.039-.547.06-.812l.099-1.713c.07-1.141.12-2.285.208-3.426.183-2.28.345-4.565.617-6.838.24-2.277.497-4.554.818-6.822.28-2.275.637-4.539 1.001-6.803.32-2.272.82-4.511 1.24-6.767.418-2.256.974-4.484 1.455-6.729.506-2.239 1.11-4.455 1.661-6.685.595-2.219 1.254-4.421 1.878-6.633.677-2.197 1.438-4.368 2.152-6.554l2.403-6.471c.888-2.124 1.754-4.258 2.671-6.37l2.968-6.24 3.24-6.106 3.536-5.942 3.821-5.764-.123.221c.149-.346.307-.8.415-1.203.117-.414.186-.824.208-1.191.037-.377-.031-.677-.097-.824-.023-.093-.073-.097-.092-.152-.062-.016-.1-.076-.15-.074a.128.128 0 0 1-.032-.027c-.007-.005-.006-.013-.021-.019l-.093-.007-.372-.028-.186-.014-.011-.001.08.003h-.074l-.091.001-.365.004-1.461.019-1.461.018c-.487.019-.972.068-1.458.101l-1.458.108c-.485.043-.974.056-1.456.125l-2.891.424c-.48.08-.968.121-1.441.233l-1.422.33-2.846.656.831-1.198c.166 2.08-.129 4.336-1.228 6.276a9.573 9.573 0 0 1-2.098 2.544l-.671.524c-.226.176-.453.353-.66.452l-1.339.746c-1.691.847-3.37 1.733-4.92 2.819-1.583 1.037-3.042 2.25-4.444 3.519-1.358 1.316-2.687 2.676-3.836 4.189-1.194 1.477-2.232 3.077-3.226 4.702-.943 1.657-1.835 3.348-2.596 5.105-.38.878-.77 1.753-1.093 2.657-.349.895-.68 1.793-.965 2.704l-.451 1.36-.403 1.401-.397 1.387-.338 1.405-.669 2.812-.538 2.838c-.202.943-.31 1.899-.441 2.853-.113.956-.294 1.905-.341 2.867l-.221 2.879c-.037.961-.037 1.923-.057 2.885-.042.963.029 1.922.071 2.883.044.961.074 1.926.209 2.871.123.951.187 1.899.356 2.855l.534 2.867c.424 1.925.396 4.122-.464 5.994-.829 1.89-2.309 3.384-3.945 4.506l.139-.473 1.285 2.937c.419.984.969 1.904 1.448 2.86.25.473.483.955.775 1.403l.836 1.37c.286.452.542.923.852 1.36l.921 1.315c.311.436.605.884.93 1.31l.998 1.259c.647.855 1.358 1.657 2.074 2.455.358.398.701.812 1.085 1.186l1.127 1.148c.743.774 1.562 1.47 2.339 2.209l-.248.113.205-.139z"/><linearGradient id="i" gradientUnits="userSpaceOnUse" x1="245.511" y1="128.736" x2="245.511" y2="145.702"><stop offset="0" stop-color="#D6D4D3"/><stop offset="0" stop-color="#9B9B9A"/><stop offset="1" stop-color="#686867"/></linearGradient><path fill="url(#i)" d="M300.021 136.753c-19.25-5.003-40.805-5.169-54.511-5.169-13.7 0-35.261.167-54.511 5.169.001 0 46.544 18.753 109.022 0z"/><path opacity=".1" d="M286.256 133.983c-11.221 3.321-26.358 6.674-41.756 6.674-16.494 0-27.715-3.847-34.551-7.381-6.33.764-12.759 1.868-18.949 3.477 0 0 46.543 18.753 109.021 0-4.505-1.171-9.137-2.068-13.765-2.77z"/><g><path d="M191.542 135.354s.411.173 1.138.437c.72.282 1.835.652 3.247 1.131 1.431.429 3.15 1.018 5.174 1.537 1.009.268 2.077.574 3.214.858l3.596.841c1.249.314 2.57.552 3.932.82 1.365.253 2.768.57 4.228.796 2.921.433 5.991.994 9.204 1.295 1.604.173 3.231.379 4.885.534l5.025.341 2.547.173c.852.053 1.708.046 2.566.072l5.161.11c1.724.076 3.446-.035 5.163-.067l5.125-.144c3.389-.183 6.718-.512 9.945-.75 3.22-.323 6.312-.819 9.258-1.191l2.177-.293c.712-.112 1.406-.264 2.093-.39l3.97-.765 3.654-.703 1.694-.331 1.58-.401 5.291-1.342 4.612-1.171-4.578 1.295-5.259 1.487-1.572.444-1.687.377-3.641.804-3.959.874c-.686.146-1.378.317-2.09.448l-2.174.353c-2.943.453-6.036 1.036-9.262 1.447-3.234.328-6.572.749-9.979 1.026l-5.152.284c-1.728.08-3.462.237-5.199.208l-5.206.031c-.865-.003-1.73.027-2.591-.002l-2.574-.105-5.084-.208c-1.674-.111-3.325-.274-4.951-.405-3.258-.218-6.379-.7-9.352-1.06-1.485-.189-2.916-.471-4.308-.691-1.39-.235-2.737-.441-4.015-.725l-3.68-.756c-1.165-.259-2.263-.541-3.299-.786-2.077-.474-3.857-1.028-5.336-1.429-1.469-.455-2.622-.803-3.421-1.09-.805-.269-1.196-.422-1.196-.422l1.086-2.796z"/></g><path opacity=".1" d="M302.98 295.5h-.019c-171.302 9-141.943-101.69-121.963-148.705-40.354 44.723-42.577 116.016-41.103 137.565 21.146 14.25 105.604 12.917 105.604 12.917s29.143 1.223 57.481-1.777z"/><path fill="#2D2D2D" d="M22.314 391a1.5 1.5 0 0 1-1.44-1.083c-.23-.796.228-1.377 1.024-1.608l103.89-29.809h218.737l.201-.192 103.528 29.375c.797.227 1.259.994 1.031 1.791-.227.797-1.058 1.479-1.854 1.25L344.105 361.5H126.213L22.731 391.191c-.139.04-.279-.191-.417-.191z"/><linearGradient id="j" gradientUnits="userSpaceOnUse" x1="49.992" y1="377.884" x2="197.493" y2="378.384"><stop offset="0" stop-color="#2D2C2C"/><stop offset="1" stop-color="#5C5B5C"/></linearGradient><path fill="url(#j)" d="M53.028 381.769c-.215 0-.434-.046-.644-.142-.752-.346-1.069-1.013-.723-1.766.264-.575 3.004-5.361 17.69-5.361H195a1.5 1.5 0 1 1 0 3H69.352c-12.645 0-14.968 3.628-14.99 3.667-.25.543-.777.602-1.334.602z"/><linearGradient id="k" gradientUnits="userSpaceOnUse" x1="278.5" y1="378.136" x2="423.488" y2="378.136"><stop offset="0" stop-color="#5C5B5C"/><stop offset="1" stop-color="#2D2C2C"/></linearGradient><path fill="url(#k)" d="M421.988 381.738c-.553 0-1.081-.057-1.343-.579-.099-.163-2.543-3.659-14.974-3.659H280a1.5 1.5 0 1 1 0-3h125.672c14.688 0 17.417 4.789 17.68 5.364.345.753.013 1.519-.74 1.863-.203.092-.415.011-.624.011z"/><linearGradient id="l" gradientUnits="userSpaceOnUse" x1="234.296" y1="372.125" x2="233.955" y2="417.999"><stop offset="0" stop-color="#5C5B5C"/><stop offset="1" stop-color="#444444"/></linearGradient><path fill="url(#l)" d="M234 414c-1.104 0-12-.896-12-2l9-36c0-1.104 1.896-2 3-2s3 .896 3 2l9 36c0 1.104-10.896 2-12 2z"/><linearGradient id="m" gradientUnits="userSpaceOnUse" x1="233.842" y1="371.299" x2="235.176" y2="351.966"><stop offset="0" stop-color="#5C5B5C"/><stop offset="1" stop-color="#444444"/></linearGradient><path fill="url(#m)" d="M234 371c-1.104 0-3-.896-3-2l1-14a2 2 0 0 1 4 0l1 14c0 1.104-1.896 2-3 2z"/><path fill="#7789F6" d="M179.25 485.375c-6.402 1.011-7.25 14.625-1.125 16.5s8-.125 12.375 0 7.125 1.113 12 .807 4-2.182 9.625-1.432 12.5.75 13.375.125 5.875.125.875-3.625-6.75-5-6.75-7.5-5 2.49-4.375 3.808-2.625.942-2.875-2.308-.625-4.625-1.5-3.25-3.5.75-4.125-.125 0-4.875-1.5-.75-1.125 6.625-2.125 4.75-1.512-2-1.631 0 4.994 6.625 0 3.125-4.994-5.375-4.994-3.5.5 4.115-.5 2.058 1.25-7.183-1.5-4.558-3.125 5.615-4 4.558-2.375-.317-4.25 0-4.25 3.183-3.5 0 4.625-7.808 1.875-7.558-4.125 2.25-4.125.5 1.125-2-1.25-1.625z"/><g><path fill="#F7E161" d="M195.25 500.875c-.75-.375-1.25-.625-4.125-3.875s-.875-.5-1.375 2.5-1.125.25-3.125-1.188-1.75-1.688-2.375 0-.875-.062-2.25-1.562-.75-1.875-1.75 0-.625 3.125-1.625.75 1.5-6.875-1.375-4.875c-1.795 1.248-1.446 5.225-.87 8.249.503.449 1.08.798 1.745 1.001 6.125 1.875 8-.125 12.375 0 2.351.067 4.237.38 6.231.611-.725-.861-1.3-1.52-1.481-1.611zm31.113.25c-3.012-4.375-1.613-1-7.363-5.375s-2-.75-2.75 3.125-1 .625-2.5-1.25-3.75-2.875-4.125-.125-1.125.5-3.125-1.125-2 1.875-3.5 3.323-1.625-.448-4.25-1.948c-2.2-1.258-1.409.744.596 4.956.968.044 1.998.048 3.154-.024 4.875-.307 4-2.182 9.625-1.432s12.5.75 13.375.125c.168-.12.49-.189.863-.25z"/></g><g><path fill="#D48E2A" d="M219.875 500c-1.5-4.375 0 0-.873 1.796 1.734.054 3.296.038 4.467-.045a27.44 27.44 0 0 1 .156-1.876c.875-7.375-2.25 4.5-3.75.125zm-31.007 1.926c-.2-.267-.405-.535-.618-.801-2-2.5-.914-2.203-1.927-1.25s-1.573 1.125-2.573 0-.75-1.766-2.5.565-.875-.19-3-1.69c-2.028-1.432-.753-.351.998 3.438 4.502 1.126 6.548.007 9.62-.262zm23.257-.676c.915.122 1.864.223 2.814.305a11.127 11.127 0 0 1-.939-1.93c-1.544-4.016-1.647-.992-2.475 1.558.198.02.385.039.6.067zm-6.5-.875c-1.625 0-3.125 2.307-4.361 1.934-.786-.237-.678-.395-.173.421.454-.007.914-.017 1.409-.048 2.594-.163 3.562-.769 4.746-1.188-.401-.655-.912-1.119-1.621-1.119zm-9.183 2.079c-.676-.565-1.135-.183-4.442-2.829-3.182-2.546-.791-.319-.145 2.321 1.643.116 3.096.329 4.587.508z"/></g><path fill="#7789F6" d="M253.375 492.875c-.197 1.114-.25 3.758-2 5.629s-4.375 4.746-.625 5.621 4 1.375 5.25.625 1.25-1 2.5-.5 1 .875 3.625.25 4-.5 5.375-.625.875-.717 2.875-1.421 2.375-1.55 3.75-.627-.25 1.298 2.25 2.048 2.75.607 3.75 1.241 2.75.241 4.375 0 2.125-2.212 4-3.289 4-1.577 4.75-1.452 3.875 1 5.25 0 3.25-.75 4.375-4.125-1-7-2.375-8-2.75 3.125-3.5 5-.375 1.002-1.625-1.124-3 2.624-4.375 3.249-2.25-2.369-3.375-1.622-3 3.552-4.375 3.024-2.5-4.188-3-2.795-3.25 5.064-3.75 3.416-.625-.518-1.75-3.646-2.875-4.878-3.125-2.628-.125 6.5-1.5 4.875-.25-1-2.75-2.875-5.125-3.5-4.875-1.75 1.75 3.375.25 4-3-2.744-3.25-1.622-1.625 4.677-2.375 3.024-3.223-6.882-3.75-3.901z"/><g><path fill="#F7E161" d="M297.75 495.861c-2 .861-1.25.389-3.75 3.752-.247.332-.446.58-.624.787.77.149 2.993.717 4.454.283.639-1.71 1.465-3.892 2.67-6.701 2.903-6.768-.75 1.018-2.75 1.879zm-25.706 5.859a39.756 39.756 0 0 0-.294-2.105c-.625-3.636-1 .511-3.25 2.213s-.5-1.328-1.875-3.828 0 0-1.125 1.614-.5.886-2 1.938-.625-1.803-1.5-4.665-.25.987-1.375 2.727-2 2.261-2.875.511 0 0-2.375 1.702-.375-1.327-.5-3.582-.25-1.37-1.25.259c-.89 1.449-2.371 3.58-3.479 5.441.181.066.38.127.604.18 3.75.875 4 1.375 5.25.625s1.25-1 2.5-.5 1 .875 3.625.25 4-.5 5.375-.625.875-.717 2.875-1.421c.731-.258 1.243-.532 1.669-.734zm4.331 2.155c2.5.75 2.75.607 3.75 1.241.829.525 2.174.345 3.535.131-.189-1.25-.47-2.618-1.035-3.692-1.875-3.562-.375-.305-2.75 1.945s-1.625-.75-3-2.983c-1.049-1.703-1.227.489-2.027 2.458.093.28.358.549 1.527.9zM292 497.398c-.875-2.102-1 .602-3.125 3.08-.932 1.087-1.118 1.48-1.256 2.005.263-.236.544-.463.881-.656 1.374-.789 2.877-1.266 3.88-1.416-.053-.742.031-2.025-.38-3.013z"/></g><g><path fill="#D48E2A" d="M262.125 504.5a19.29 19.29 0 0 1 3.301-.509 15.169 15.169 0 0 0-.676-2.241c-1.375-3.625 0 0-1.625 1.08s-1.375.045-1.75-1.705 0 0-2 1.329-.375-.454-1.427-1.975-.828-.786-2.22 1.074-2.229 1.322-2.854.274c-.456-.766-.452 1.047-.753 2.639 2.461.648 2.803.93 3.878.284 1.25-.75 1.25-1 2.5-.5s1.001.875 3.626.25zm9.225-2.449c1.192-.557 1.663-.97 2.775-.224.732.491.616.827.723 1.147.257-.567-.723-1.148-1.848-4.471-1.125-3.323-.25.871-1.048 2.471a12.51 12.51 0 0 1-.602 1.077zm26.275-4.378c-.203-3.016-2.619.556-2.625-.896s-.75.473-1.875 1.727-.768 1.358-1.5-.361-.875 1.107-1.625 2.336c-.16.262-.295.529-.424.808 1.551-.695 3.065-1.013 3.674-.911.654.109 3.113.787 4.645.296-.334-.643-.137-1.027-.27-2.999zm-17.5 7.443c1 .634 2.75.241 4.375 0 .357-.053.655-.2.931-.393-.688-.917-1.81-2.394-2.806-3.169-1.375-1.07-.75 2.07-1.25 2.695s-.375-.875-.75-3.771-1.25.896-2.25 2.202c-.341.445-.65.973-.938 1.497 1.525.416 1.855.412 2.688.939z"/></g><path fill="#7789F6" d="M172.375 520.5c-.875 1.375-4.125 4.5-1.875 7.75s5.5 8.375 7.625 8.25 5.125-1.375 7.125-.5 5.25 1.754 6.5.502 1.625-1.252 3.125-1.002 2 0 3.625.25.652-.875 2.764-.75.551.875 2.706.875 1.647-.25 3.276-.75 2.129 0 3.129.125 1.34-1 2.857-.75 1.768.375 2.768.5.754.5 3.002.375 1.623-.125 4.123-.25 3.125.875 4-.125 2.375-.25 0-1.875-4.971-1.5-5.735-3.75-2.511-5.125-2.388-2.875-.373 1.75 0 3.375-2.752-2.125-3.377-3.5-.871 2.75-.686 4.25-3.314-.75-4.064-3.625-2.125.25-2.375 2.75-2.625 2.5-3.875-.938-1.723-3.938-2.611-.938-.764 3.75-2.139.938-2.037-4.062-3.144-1.562-3.528 3.5-3.317.125-2.393-3.375-3.028-2.375-.649-2.75-1.518-2-.618 2.5-1.243 3.125-1.375-.625-2.125.5-1.545 4-2.46 1.75-1.165-6.25-1.79-4 1 5.875-1.375 3.125-1.576-2.75-2.663-4.375-1.212-3.5-1.837-1.5-1.75 4.375-2.125 2.375-.875-3.5-.875-3.5zm75.875 15.75c1.011-1.743 2.375-4.125 2.625-3.125s.244 2.25 1.247.875.628.5 1.503-2.375-1.125-3.125.875-2.875 3.25 1 3.25 1.75.297 4.301 1.023 1.963 1.352-6.088 1.852-3.65.5 5.457 1.5 3.322S264 535.25 264 528.812s-2-7.688 0-6.438 4 1 4.375 2.625 3.199 4.875 2.975 2.125-.637-5.25.694-3 2.901 2.625 2.804 4.688.309 6.688 1.168 3.312 1.234-6.75 1.984-4.875.883 6 1.254 3.375-.754-5.125.996-3-1.5 4.625 2.125 3.125 2.125.941 4.25-1.654 3.5-1.346 3.375-3.721 1-3.125 1.5-1 1.25 3.5 2.75 1.875 1.83-1.625 3.228-1.875.397 4 1.397-.25 1.16-5.617 2.705-2.184.834 10.934-3.686 11.809-6.145-.375-7.02.5-1.512 1.5-3.256 2.875-2.869 1.625-5.119.625-4.844-3.125-6.484-2.625-3.391.5-6.016 2-1.625.467-5.75 1.233-6.375-.108-8.75.767-1.506.125-3.378-.75-4.506-1.029-3.871-2.124zM298.625 555c-.476-1.428 2.91 4.375 2.955 6.875s-.33 4.625-2.955 5-1.998-2-5.249-.75-4.501 1-6.376 3.375-1 4.25-4.625 2.625-2.5-2.5-4.938-2.625-3.225-2.125-5.394-.75-4.294 1.625-5.044 2-6.078.5-8.227-.25-2.273 1.5-4.023 1.5-3.209-.375-4.604-2-1.145-1.75.855-4.125 3.875-3 4.75-5.25 1.375-1.75 2.125.125 1.5 5.486 2.25 3.118 1.25-3.118 1.875-1.743 1.375-1.375 1.875-.125.602 3.861 1.551 1.868S266.5 560.125 267 562s.875 4.375 2.5 3 1.988-2.25 3.619-2.375 1.355-2 2.306-.375 1.325 1.5 2.7.625.125-1.75 1.375-.875-.125 4.75 1.25.875 4.611-6.75 4.681-5.5 2.058-2.25 2.188.375-.381 2.75 0 4.625-.619 4.875 1.256 2 1-3.875 2.75-3.125.471 1.75 2.11.5 1.39-2.375 2.14-.5.58 5.736 1.603 2.618 1.897-6.618 1.147-8.868zm-119.5 1.125c1.35-1.868-5.078 3.375-5.164 6s3.414 6.375 5.164 6.375 3.125-.75 5.25 0 3.111 1.5 4.493.5 1.257-1.75 3.757-1.125 2.607 1.25 4.804.75 1.974-.75 3.835-.125-3.139-.125 4.111-.125 7.629.25 9.564 0 1.064 0 4.062.375 7.475 1.625 7.361-.25-.059-2.738-2.586-4.744-5.148-7.631-4.775-5.381-.127 2.25-.752 3-1.625 3.256-2 1.44-.996-4.065-1.311-2.815-1.475 1.375-1.707.5-.564-2.75-1.336-1.5-1.771 1.75-1.646.75.875-3.5-1.125-.875-2.875 3.625-3.375 3.25 0 3-.5-.375-1-2.375 0-4.5 1.625-3.25-2.375-1.125-3.375 4.75-4.5 4.5-2.5-3.25-3-2-.547 3-1.961 1.5-.768-2.25-3.028-3.5-2.511-4.527-2.886-1.639-1.104 4.639-1.177 3.389-.448-3-1.073-.75-1.25 4.125-1.625 3.125.5-3.125-.375-1 .875 4.625-1.125 2.75-4.624-4.125-2.999-6.375z"/><g fill="#F7E161"><path d="M220 565.875s-2.625.625-5.061-.718-1.707-.532-1.707-.532-.357.5-2.982-.869-.875-.631-.625.869-1.125.625-3.5-.869 0 1.244 0 1.401-2.75-1.657-2.155-.657-1.72-.25-2.706-2-1.389.125-2.202 1.256-.812-.881-1.633-2.088-.304-.168-.986 1.332-1.442.875-2.567-1.332-1.125.332-2.25 2.088-1.75.619-2.757-1.256-.993-.25-1.368.75-1 .75-1.75 0-1.75 1.25-1.875 2.381-1.125.244-2.125-.881-.625-.75-.875.881-1.25-2.131-1.875-3.256-1.25-.75-1.788 1.381c-.343 1.359.023 3.062.624 4.284.474.287.921.46 1.289.46 1.75 0 3.125-.75 5.25 0s3.111 1.5 4.493.5 1.257-1.75 3.757-1.125 2.607 1.25 4.804.75 1.974-.75 3.835-.125c.067.022.124.043.174.062.346-.094 1.375-.188 3.938-.188 7.25 0 7.629.25 9.564 0s1.064 0 4.062.375c1.326.166 2.94.502 4.32.664-.705-.79-1.938-1.862-3.323-3.538z"/><path d="M201.438 568.562c-.596.162.847.323 0 0z"/></g><g><path fill="#D48E2A" d="M201.312 568.682c.135.094.747.117.125-.119a.392.392 0 0 0-.125.05v.069zm17.063-1.182c-.627-1.25-1.375-.75-3.436-1.625s-.564.25-1.707-.125-.857.5-1.707-.625-1.275 1.75-2.453.252-1.332-.626-3.316-.369-1.881 1.867-4.492 1.242c0 0 .039 1.235.048 2.267.046.017.089.031.126.046.346-.094 1.375-.188 3.938-.188 7.25 0 7.629.25 9.564 0 1.899-.245 1.105-.009 3.906.354a7.631 7.631 0 0 0-.471-1.229zM187 565.493c-.375-.257-1.375 1.132-2.625.367s-.5-.229-1.335.64-1.29.25-2.438-.498c-.913-.596-.437.787.237 2.324 1.067-.164 2.14-.318 3.535.174 2.125.75 3.111 1.5 4.493.5.204-.148.374-.289.525-.423-.93-1.259-2.135-2.908-2.392-3.084zm10.429 3.132c1.203-.274 1.682-.467 2.173-.487a7.702 7.702 0 0 1-.54-.763c-.447-.764-2.062-2.5-2.619-2.5-.334 0-1.054 1.929-1.632 3.69.755.254 1.33.353 2.618.06z"/></g><g><path fill="#F7E161" d="M277.438 569.5c2.438.125 1.312 1 4.938 2.625s2.75-.25 4.625-2.625c1.454-1.842 2.536-2.106 4.462-2.715-.584-.635-1.262-.781-1.462-2.264-.231-1.715-.358.15-1.965.944-.09.074-.161.107-.212.092-.067.026-.132.057-.204.079-2.006.637-.994.738-2.188 0s-.056-.762-.306-4.137 0 0-.75.168-1.75 3.582-1.75 3.582-1.625-.25-3.371 1.375-1.129 1.125-1.816-1.375-.938 0-2.549 1.125-1.514.375-2.845-.625c-.691-.52-1.669 1.625-2.169.75s-.875 0-1.875.854-1.5.646-2.375-1.479 0 0-.75 1.479-.876-.353-1.376-2.832-.75-.271-2.405 2.354c-.337.535-1.595.75-3.095 3.011-.125.188-.239.349-.349.496.308-.06.668-.04 1.122.118 2.148.75 7.477.625 8.227.25s2.875-.625 5.044-2 2.956.625 5.394.75zm-26.865.948c1.268 1.24 2.604 1.552 4.177 1.552.755 0 1.207-.418 1.65-.834-.242-.229-.382-.84-.525-1.66-.322-1.847.25-5.256-.5-3.631-.607 1.317-3.665 3.713-4.802 4.573z"/></g><path fill="#F7E161" d="M221.39 533.875c-1.36-1.875-1.14-1.25-2.237-2.625s-.902.5-1.652.5-1.5.375-2.561-1.125c.079.643-.519.594-1.285.105-.118.244-.246.493-.422.645-.613.529-1.482.75-2.732-.125s-1.25.375-2.375 1.375-2 .625-3.5-.375-.875-1.5-1.25-.75-1.125 1.125-2.682.375-1.443-.5-2.193.625-.875.75-4-2.125c0 0-.375 1.875-1.086 1.5s-1.539-.75-2.289.125-1.375 1.125-3.125-.125-2.625-1.625-2.75 0-1.75.875-2.21 0-1.915-1.5-2.415-.125-1.5 1.125-2.5.25-.5-5.625-2.875-4c-1.381.945-.537 4.377.41 7.09.896.885 1.745 1.452 2.465 1.41 2.125-.125 5.125-1.375 7.125-.5s5.25 1.754 6.5.502 1.625-1.252 3.125-1.002 2 0 3.625.25.652-.875 2.764-.75.551.875 2.706.875 1.647-.25 3.276-.75 2.129 0 3.129.125 1.34-1 2.857-.75 1.767.375 2.767.5.754.5 3.002.375c1.989-.11 1.732-.123 3.379-.212a36.369 36.369 0 0 1-.991-1.288z"/><g><path fill="#D48E2A" d="M185.25 536c.828.362 1.869.716 2.896.929-.311-.732-.306-1.816-.646-3.429l-.087-.418c-.304.275-1.396 1.17-2.038.439-.75-.854-.723-.713-1.5.854s-.625.375-1.5-.625c-.689-.788-.681.598-.707 2.138 1.288-.227 2.564-.333 3.582.112zm2.163-2.918l.087-.08s-.435-1.632-.087.08zm7.962.543c-.534.076-.369.99-.188 1.918 1.26.168 1.811-.024 3.313.207.607.094.852-.005 1.029-.158-.15-.224-.306-.452-.468-.688-1.188-1.721-1.562-.279-2.812-1.404s.001 0-.874.125zm8.595 2.25c2.155 0 1.647-.25 3.276-.75a5.49 5.49 0 0 1 .589-.147c-.568-.189-1.332-.448-2.46-1.353-1.733-1.39-.796.118-1.84 2.235.127.009.266.015.435.015zm12.729-.703c.085-.893.687-1.925.055-3.381-.363-.837-.754.584-1.814.033s-1.707-.449-3.043 0c-.954.32-1.83 2.306-2.48 3.21.305.078.6.171.959.216 1 .125 1.34-1 2.857-.75s1.767.375 2.767.5c.32.04.513.105.699.172z"/></g><g fill="#F7E161"><path d="M294.282 530.388c.361-.015.235-.052 0 0zm-43.728 7.414c.526.161 1.073.342 1.568.573 1.872.875 1.003 1.625 3.378.75 2.211-.814 4.333-.129 7.94-.646-.092-.662-.158-1.191-.19-1.354-.125-.625-1.5-.125-2.25-2.375s0 0-2.227 2.375-.898-.625-1.398-1.599.125-1.276-.75 0-.375-.401-.75-2.401-.375-.625-1.625 1.125-1.125 1-2.128 2c-.605.604-1.031 1.052-1.568 1.552z"/><path d="M298.375 529.606c-.25-5.394-1.375 2.269-1.875.737s-.375-.594-1.988 2.031-.137.625-.776-.927c-.305-.74.222-.987.547-1.061-.189.009-.512.01-1.032-.013-2.875-.125 0 0-1.875 2.75-.555.814-.822 1.242-.961 1.582.151-.148.302-.298.461-.457.875-.875 2.5.375 7.02-.5.171-.033.325-.093.485-.145a42.916 42.916 0 0 0-.006-3.997zm-23.46 5.795c-.234-.61-.499-1.158-.79-1.526-1.142-1.446 0 0-1.006-1.5s-.494.875-1.445 1.625-.674-.5-1.424-2.625 0 0-1.125 2-.25 1.5-1.875-.5-.5.625-1.824 3.25c-.885 1.755-.165 1.779.128 2.024 2.629-.341 2.144.291 4.446-1.024 2.052-1.172 3.566-1.43 4.915-1.724zm10.96-.497c-.5-1.721-.625.346-.444-1.154s-1.306 1.375-1.771.25-.41.875-.66-1-1.25 1.25-1.566-.5-1.309 1.5-2.18.375-.004-.875-1.004 1a5.388 5.388 0 0 0-.507 1.419c1.461.522 3.191 1.761 4.757 2.456 2.064.918 3.188.771 4.705-.32-.405-.797-.999-1.388-1.33-2.526z"/></g><g><path fill="#D48E2A" d="M254.75 572c.334 0 .608-.083.85-.21-.15-1.085-1.225-1.54-1.35-2.65-.092-.815-1.57.648-2.744 2.049.995.625 2.051.811 3.244.811zm5.411-1.184c1.114.17 2.468.236 3.687.23a74.718 74.718 0 0 1-.848-3.297c-.5-2.125-.375-1.25-1.125 0-.49.818-.984 1.895-1.714 3.067zm37.317-6.948c-.615 1.877-.799 1.221-1.011-.005-.288.704-.678 1.364-1.217 1.651-.161.086-.288.167-.424.249 1.385-.085 1.62.93 2.857 1.118a66.332 66.332 0 0 1-.205-3.013zm-15.103 8.257c2.428 1.089 2.838.603 3.407-.548a4.177 4.177 0 0 1-.907-.327c-.893-.446.25-2.375 0-4.786s-1 .411-2.625 1.411c-1.129.694-1.874 1.712-2.825 2.343.481.438 1.09 1.073 2.95 1.907zm-14.268-1.74c.447-.127.971-.276 1.552-.485-.263-.378-.522-.582-.784-.394-.265.191-.519.504-.768.879z"/></g><g fill="#D48E2A"><path d="M260.955 536.085c-.007-.534-.292-.672 0 0zm-4.889 2.879c-.225-.504-.521-.979-.941-1.312-1.493-1.181-.75.723-1.5-.527-.708-1.181-1.318-.966-2.564.838.363.121.725.255 1.062.412 1.872.875 1.003 1.625 3.378.75.188-.069.377-.112.565-.161z"/><path d="M260.625 537.125c-.299.458-.63 1.013-.992 1.578.749.007 1.573-.005 2.495-.076-.062-.322-.142-.595-.253-.752-.522-.737 0 0-.78-1.488-.065-.125-.1-.209-.14-.302.004.27-.06.628-.33 1.04zm34.789-6.354c-2.48-2.979-1.535 1.229-1.679.678s-1.735-2.449-1.846-.962-1.139 1.638-3.264.961c-1.765-.562.087 1.826 1.067 3.942.429-.391.782-.74 1.183-1.141.82-.82 2.301.228 6.211-.36-.423-1.158-.967-2.271-1.672-3.118zm-24.064 5.104c-.682-.295-.725-1-2.225-2.5s-.416.796 0 2.238c.195.676-.078 1.461-.604 2.247.349-.123.787-.34 1.479-.735a13.6 13.6 0 0 1 1.693-.821c-.024-.241.077-.247-.343-.429zm14.081-.125c-.529-.145-1.646.979-2.574 2.143 1.836.741 2.926.561 4.353-.466-.292-.754-.872-1.428-1.779-1.677z"/></g></svg>